<svg width="1920" height="612" viewBox="0 0 1920 612" fill="none" xmlns="http://www.w3.org/2000/svg">
<rect x="229.195" y="40" width="1145.32" height="745.444" transform="rotate(41.5615 229.195 40)" fill="#262626"/>
<rect x="608.812" y="196" width="1040.07" height="772.434" transform="rotate(36.4214 608.812 196)" fill="#262626"/>
<rect x="1282.35" y="166" width="920.55" height="851.937" transform="rotate(47.7226 1282.35 166)" fill="#262626"/>
<rect x="907.03" y="294" width="547.353" height="588.678" transform="rotate(42.1479 907.03 294)" fill="#262626"/>
<rect x="1752.54" width="751.684" height="851.937" transform="rotate(52.6832 1752.54 0)" fill="#262626"/>
<path d="M229 40.5L367 162L108.5 176L229 40.5Z" fill="#464646"/>
<path d="M1752.5 0L1836 109.5L1593 121.5L1752.5 0Z" fill="#464646"/>
<path d="M1282.5 166L1360 251.5L1200 241L1282.5 166Z" fill="#464646"/>
<path d="M608.5 196L704.5 267H556.5L608.5 196Z" fill="#464646"/>
<path d="M906.5 294L943.5 327.5L887 316L906.5 294Z" fill="#464646"/>
</svg>
